Coordinates
version=1
nRows=29
nColumns=24
inDegrees=yes

Units are S.I. units (second, meters, Newtons, ...)
Angles are in degrees.

endheader
time	pelvis_tilt	pelvis_list	pelvis_rotation	pelvis_tx	pelvis_ty	pelvis_tz	hip_flexion_r	hip_adduction_r	hip_rotation_r	knee_angle_r	ankle_angle_r	subtalar_angle_r	mtp_angle_r	hip_flexion_l	hip_adduction_l	hip_rotation_l	knee_angle_l	ankle_angle_l	subtalar_angle_l	mtp_angle_l	lumbar_extension	lumbar_bending	lumbar_rotation
      5.56000000	      3.33319387	      3.32706945	     -4.39339799	     -1.67944979	      1.06251402	      0.28395899	     10.13563813	     -5.53730358	     -0.97694975	    -59.80527917	    -24.90877462	    -41.56275831	      0.00000000	      2.83155282	      8.84881249	     -2.22504971	    -11.12730734	      8.24833893	    -19.67380227	      0.00000000	    -19.04086388	     -3.20768442	     -7.67290371
      5.57000000	      3.09824043	      2.97931918	     -4.07759740	     -1.66826026	      1.06344909	      0.28262071	     11.43541130	     -4.79814165	     -0.66720420	    -59.47447882	    -21.76050423	    -40.62454480	      0.00000000	      2.04939405	      8.59523531	     -1.81405752	    -10.50692434	      8.38565033	    -19.64932634	      0.00000000	    -18.97127375	     -2.65081364	     -8.06200423
      5.58000000	      2.86039842	      2.66985603	     -3.73231980	     -1.65710904	      1.06425427	      0.28134237	     12.68237038	     -4.12108272	     -0.42211308	    -58.91938382	    -18.71465431	    -39.38588793	      0.00000000	      1.26578618	      8.36580862	     -1.39808780	     -9.86217979	      8.48082520	    -19.62171873	      0.00000000	    -18.88809754	     -2.15199853	     -8.43259739
      5.59000000	      2.62937956	      2.40644897	     -3.34705995	     -1.64597889	      1.06493271	      0.28010108	     13.85893843	     -3.52758082	     -0.25815835	    -58.13690987	    -15.81012863	    -37.93188133	      0.00000000	      0.46629806	      8.17226134	     -0.93718707	     -9.18992597	      8.51026317	    -19.58801871	      0.00000000	    -18.80156337	     -1.71730835	     -8.79161412
      5.60000000	      2.42321476	      2.20621103	     -2.95775184	     -1.63489474	      1.06546598	      0.27893609	     14.95565556	     -3.02879993	     -0.12877413	    -57.14330942	    -12.99483312	    -36.32864767	      0.00000000	     -0.35183585	      8.03393881	     -0.48131349	     -8.51246428	      8.51753109	    -19.65894407	      0.00000000	    -18.74314619	     -1.37380839	     -9.16504169
      5.61000000	      2.24138298	      2.06263290	     -2.52231633	     -1.62381231	      1.06588677	      0.27778852	     15.95115006	     -2.63680058	     -0.08680056	    -55.91928135	    -10.36460060	    -34.65282326	      0.00000000	     -1.20908940	      7.94574196	      0.05455904	     -7.80735220	      8.44436096	    -19.72530415	      0.00000000	    -18.70477480	     -1.10344952	     -9.54910429
      5.62000000	      2.08480417	      1.98179389	     -2.07798768	     -1.61274014	      1.06617449	      0.27669904	     16.84804751	     -2.34531358	     -0.08570662	    -54.47315878	     -7.88606470	    -32.96726784	      0.00000000	     -2.09404625	      7.91333320	      0.59403571	     -7.09171077	      8.32121474	    -19.87993037	      0.00000000	    -18.69246166	     -0.91913781	     -9.95692583
      5.63000000	      1.91241363	      1.95046324	     -1.62509567	     -1.60165530	      1.06629017	      0.27565836	     17.68178685	     -2.13740387	     -0.12370059	    -52.80197339	     -5.62104696	    -31.32120314	      0.00000000	     -2.97104870	      7.92284884	      1.15404977	     -6.35622089	      8.07430286	    -20.18399377	      0.00000000	    -18.65302834	     -0.79832141	    -10.38255083
      5.64000000	      1.85689380	      1.98879960	     -1.15735993	     -1.59053637	      1.06641311	      0.27465923	     18.29478149	     -2.04131588	     -0.20563799	    -50.89239304	     -3.62110481	    -29.77890708	      0.00000000	     -3.98931315	      7.99518317	      1.68846827	     -5.59481904	      7.89528867	    -20.34434184	      0.00000000	    -18.74947830	     -0.76869781	    -10.82749737
      5.65000000	      1.76112266	      2.06818882	     -0.67984378	     -1.57937571	      1.06634971	      0.27371572	     18.85830328	     -2.01684569	     -0.33201369	    -48.76320940	     -1.81736551	    -28.26020489	      0.00000000	     -4.97263242	      8.09630516	      2.19964428	     -4.82447830	      7.63793754	    -20.59046981	      0.00000000	    -18.78744625	     -0.79319923	    -11.31084508
      5.66000000	      1.66978422	      2.19344490	     -0.20504050	     -1.56815581	      1.06616519	      0.27282325	     19.31527902	     -2.06377743	     -0.48216246	    -46.41010403	     -0.21168066	    -26.75588037	      0.00000000	     -5.96646870	      8.23326512	      2.63423538	     -4.04858335	      7.25121098	    -20.91359749	      0.00000000	    -18.82090578	     -0.87649421	    -11.84330082
      5.67000000	      1.56962163	      2.35297491	      0.28369114	     -1.55684327	      1.06585205	      0.27194419	     19.67218891	     -2.17778276	     -0.68284271	    -43.83959883	      1.16406130	    -25.21337060	      0.00000000	     -6.97784908	      8.39301264	      3.14115654	     -3.24840678	      6.84003195	    -21.24845609	      0.00000000	    -18.82559086	     -0.99804414	    -12.37515185
      5.68000000	      1.54968485	      2.52612264	      0.74747794	     -1.54541446	      1.06552545	      0.27115021	     19.82130422	     -2.30901162	     -0.88231645	    -41.03934739	      2.41761557	    -23.66105625	      0.00000000	     -8.06760480	      8.55018236	      3.45508883	     -2.47397154	      6.52330883	    -21.39505422	      0.00000000	    -18.91110800	     -1.14376333	    -12.91741864
      5.69000000	      1.52440309	      2.71058690	      1.23193581	     -1.53384325	      1.06507963	      0.27034317	     19.85600628	     -2.47873803	     -1.14746508	    -38.03651694	      3.47974503	    -22.01327061	      0.00000000	     -9.16454164	      8.69889620	      3.82507618	     -1.71016623	      6.28107960	    -21.42653665	      0.00000000	    -18.96505827	     -1.29343593	    -13.46787967
      5.70000000	      1.45995086	      2.91128429	      1.70414145	     -1.52212416	      1.06445017	      0.26956464	     19.83145283	     -2.68040249	     -1.46273535	    -34.87504578	      4.49255529	    -20.17654674	      0.00000000	    -10.21019689	      8.84762330	      4.13379377	     -0.98381087	      5.95611422	    -21.47570613	      0.00000000	    -18.94735339	     -1.46461801	    -14.04494738
      5.71000000	      1.39044430	      3.10915508	      2.16949890	     -1.51022713	      1.06368060	      0.26879572	     19.70950540	     -2.88550435	     -1.83010701	    -31.56440698	      5.35601908	    -18.27432558	      0.00000000	    -11.24211242	      8.97318706	      4.46306876	     -0.30427675	      5.65746807	    -21.48635568	      0.00000000	    -18.89332958	     -1.62764877	    -14.63271318
      5.72000000	      1.29115937	      3.29948786	      2.64106566	     -1.49815789	      1.06273813	      0.26802298	     19.53438823	     -3.09029393	     -2.27762580	    -28.15301117	      6.08872515	    -16.32768031	      0.00000000	    -12.21765575	      9.06825914	      4.80382281	      0.30326248	      5.35737406	    -21.50233672	      0.00000000	    -18.78023456	     -1.77892458	    -15.25015648
      5.73000000	      1.22490477	      3.47472308	      3.11791584	     -1.48588387	      1.06170597	      0.26725557	     19.24490301	     -3.26920776	     -2.77961448	    -24.66735439	      6.63527914	    -14.52895752	      0.00000000	    -13.21613298	      9.11543346	      5.24768827	      0.85078620	      5.16185850	    -21.39708610	      0.00000000	    -18.67454584	     -1.90735024	    -15.83371772
      5.74000000	      1.11759841	      3.64257658	      3.59921629	     -1.47342257	      1.06048848	      0.26648769	     18.96361653	     -3.43796254	     -3.37312364	    -21.20608227	      7.07529676	    -12.79529180	      0.00000000	    -14.14075886	      9.13165396	      5.69876606	      1.32044543	      4.94939037	    -21.33861306	      0.00000000	    -18.49181563	     -2.02469274	    -16.46254677
      5.75000000	      1.02962311	      3.79628285	      4.08353032	     -1.46079419	      1.05919543	      0.26575840	     18.62854221	     -3.56409886	     -3.96761723	    -17.79099046	      7.35204908	    -11.35425698	      0.00000000	    -15.05282769	      9.10145039	      6.23186051	      1.70350371	      4.76903602	    -21.23812448	      0.00000000	    -18.31683331	     -2.12965902	    -17.06140925
      5.76000000	      0.92928341	      3.94147056	      4.56708185	     -1.44801927	      1.05780590	      0.26507361	     18.29644921	     -3.65901583	     -4.55813284	    -14.49079342	      7.47953712	    -10.20139088	      0.00000000	    -15.91639956	      9.03564840	      6.84720737	      2.00179106	      4.57917119	    -21.16611964	      0.00000000	    -18.11458034	     -2.23238704	    -17.63349988
      5.77000000	      0.89518594	      4.06410205	      5.02403647	     -1.43508847	      1.05644262	      0.26450552	     17.86969831	     -3.67722331	     -4.93902884	    -11.31222106	      7.41363464	     -9.60770602	      0.00000000	    -16.80139479	      8.92223619	      7.39079922	      2.20425841	      4.46813815	    -20.94792124	      0.00000000	    -17.98022565	     -2.31970688	    -18.16156752
      5.78000000	      0.89294843	      4.17534773	      5.45200599	     -1.42203368	      1.05508354	      0.26401854	     17.42158309	     -3.66645165	     -5.27146310	     -8.35527075	      7.26784392	     -9.27946399	      0.00000000	    -17.67323627	      8.78080264	      7.93342852	      2.31714145	      4.31976773	    -20.75226292	      0.00000000	    -17.87772983	     -2.39994470	    -18.64158365
      5.79000000	      0.94810405	      4.27183593	      5.83461980	     -1.40886501	      1.05378220	      0.26364294	     16.94142127	     -3.62146440	     -5.55917415	     -5.68005385	      7.03961722	     -9.18598659	      0.00000000	    -18.55206314	      8.61274465	      8.44537359	      2.33529028	      4.19931508	    -20.54294908	      0.00000000	    -17.84301879	     -2.47428708	    -19.06462441
      5.80000000	      1.12055807	      4.33123526	      6.13013429	     -1.39554774	      1.05260626	      0.26343352	     16.36864308	     -3.49739561	     -5.66000621	     -3.31957487	      6.73578833	     -9.49762804	      0.00000000	    -19.50887596	      8.40192084	      8.88972641	      2.28803598	      3.88501090	    -20.44151194	      0.00000000	    -17.93643392	     -2.51379767	    -19.36619199
      5.81000000	      1.34397528	      4.35852512	      6.35839854	     -1.38209202	      1.05152657	      0.26332231	     15.84793729	     -3.33185773	     -5.96392369	     -1.44629166	      6.57311492	     -9.59625779	      0.00000000	    -20.44840127	      8.16730800	      9.26566153	      2.11920304	      3.71337271	    -20.16815985	      0.00000000	    -18.07538495	     -2.52453104	    -19.54527428
      5.82000000	      1.64631283	      4.35080735	      6.52651873	     -1.36849521	      1.05058992	      0.26329671	     15.34444164	     -3.11024268	     -6.34209256	     -0.08871381	      6.48588327	     -9.62749360	      0.00000000	    -21.37628527	      7.91160248	      9.49777291	      1.79398105	      3.50286236	    -19.89306951	      0.00000000	    -18.29862406	     -2.49360630	    -19.67720903
      5.83000000	      2.10279215	      4.27832440	      6.55144501	     -1.35464677	      1.04984104	      0.26341023	     14.79447688	     -2.77674156	     -6.63155555	      0.70079055	      6.52215553	     -9.55903975	      0.00000000	    -22.40785416	      7.62474366	      9.58011277	      1.38417573	      3.25950880	    -19.62565561	      0.00000000	    -18.64860379	     -2.38841569	    -19.64113442
      5.84000000	      2.62871261	      4.16152137	      6.53151174	     -1.34059630	      1.04922669	      0.26353619	     14.28192361	     -2.39492765	     -6.89217193	      0.89641174	      6.62968671	     -9.38908321	      0.00000000	    -23.39952653	      7.32130940	      9.50890894	      0.77856881	      2.97623379	    -19.34663536	      0.00000000	    -19.05380856	     -2.22889629	    -19.54815257
